<svg width="222" height="61" viewBox="0 0 222 61" fill="none" xmlns="http://www.w3.org/2000/svg">
<g clip-path="url(#clip0_24_326)">
<path d="M72.0495 23.6634C72.9464 23.6421 73.8376 23.811 74.6646 24.1592C75.4917 24.5074 76.2359 25.0269 76.8483 25.6837C78.132 27.0292 78.7738 28.6881 78.7738 30.6602C78.7738 32.6323 78.132 34.2918 76.8483 35.6386C76.2355 36.2947 75.4911 36.8137 74.6641 37.1615C73.8372 37.5093 72.9462 37.6782 72.0495 37.6569H66.5042V23.6634H72.0495ZM72.0495 35.0173C73.2607 35.0173 74.2482 34.6143 75.0118 33.8083C75.7754 33.0023 76.1512 31.9562 76.1394 30.6701C76.1394 29.3773 75.7602 28.3279 75.0019 27.5219C74.2436 26.7159 73.2561 26.3129 72.0396 26.3129H69.2571V35.0193L72.0495 35.0173Z" fill="#008BD0"/>
<path d="M81.8862 26.4636C81.4689 26.458 81.0703 26.2894 80.7753 25.9937C80.4802 25.6981 80.3119 25.2987 80.3063 24.8806C80.3051 24.6729 80.3455 24.4671 80.4252 24.2754C80.5049 24.0837 80.6223 23.91 80.7704 23.7646C80.9116 23.6118 81.0831 23.4901 81.2738 23.4073C81.4645 23.3246 81.6704 23.2825 81.8783 23.2838C82.0889 23.2812 82.2978 23.3226 82.4916 23.4054C82.6854 23.4882 82.8599 23.6105 83.0039 23.7646C83.1538 23.9097 83.2727 24.0838 83.3535 24.2763C83.4343 24.4688 83.4753 24.6758 83.4739 24.8846C83.4756 25.0917 83.4348 25.297 83.3539 25.4876C83.2731 25.6782 83.1539 25.8502 83.0039 25.9927C82.8595 26.1434 82.6859 26.263 82.4936 26.3439C82.3014 26.4249 82.0947 26.4657 81.8862 26.4636ZM80.6085 37.6572V27.6627H83.1757V37.6572H80.6085Z" fill="#008BD0"/>
<path d="M93.117 27.6624H95.6843V37.6569H93.117V36.4697C92.3455 37.4432 91.2613 37.9293 89.8644 37.928C89.219 37.9346 88.5797 37.8023 87.9896 37.5401C87.3996 37.278 86.8725 36.892 86.4441 36.4084C85.5256 35.3769 85.0181 34.043 85.0181 32.6607C85.0181 31.2784 85.5256 29.9444 86.4441 28.913C86.872 28.4279 87.3987 28.0404 87.9887 27.7765C88.5787 27.5127 89.2183 27.3786 89.8644 27.3834C91.2626 27.3834 92.3468 27.8702 93.117 28.8437V27.6624ZM88.3774 34.6889C88.6344 34.95 88.9425 35.1551 89.2823 35.2913C89.6221 35.4275 89.9864 35.4919 90.3522 35.4803C90.7178 35.4898 91.0814 35.4244 91.421 35.2883C91.7605 35.1523 92.0688 34.9483 92.3271 34.6889C92.834 34.1352 93.1153 33.4111 93.1153 32.6597C93.1153 31.9083 92.834 31.1842 92.3271 30.6305C92.0688 30.3711 91.7605 30.1671 91.421 30.031C91.0814 29.8949 90.7178 29.8296 90.3522 29.839C89.9864 29.8275 89.6221 29.8918 89.2823 30.0281C88.9425 30.1643 88.6344 30.3694 88.3774 30.6305C87.8767 31.1873 87.5996 31.9102 87.5996 32.6597C87.5996 33.4092 87.8767 34.1321 88.3774 34.6889Z" fill="#008BD0"/>
<path d="M103.83 27.3816C104.48 27.3751 105.123 27.5083 105.717 27.7721C106.311 28.036 106.841 28.4244 107.273 28.9111C108.191 29.9426 108.698 31.2766 108.698 32.6588C108.698 34.0411 108.191 35.3751 107.273 36.4065C106.841 36.8933 106.311 37.2817 105.717 37.5455C105.123 37.8094 104.48 37.9426 103.83 37.9361C102.435 37.9361 101.357 37.45 100.598 36.4778V37.665H98.0303V23.6636H100.598V28.8419C101.356 27.8684 102.434 27.3816 103.83 27.3816ZM101.376 34.689C101.633 34.9501 101.941 35.1551 102.281 35.2913C102.62 35.4275 102.985 35.4919 103.351 35.4805C103.718 35.4915 104.084 35.427 104.426 35.2909C104.767 35.1547 105.078 34.9499 105.337 34.689C105.844 34.1353 106.125 33.4112 106.125 32.6598C106.125 31.9084 105.844 31.1844 105.337 30.6307C105.078 30.3698 104.767 30.1649 104.426 30.0288C104.084 29.8927 103.718 29.8281 103.351 29.8392C102.985 29.8278 102.62 29.8922 102.281 30.0284C101.941 30.1646 101.633 30.3696 101.376 30.6307C100.875 31.1874 100.598 31.9104 100.598 32.6598C100.598 33.4093 100.875 34.1322 101.376 34.689Z" fill="#008BD0"/>
<path d="M113.552 37.6571L109.642 23.6636H112.533L115.201 34.0341L118.114 23.6597H120.464L123.401 34.0341L126.075 23.6597H128.968L125.058 37.6532H121.926L119.291 28.4185L116.679 37.6532L113.552 37.6571Z" fill="#008BD0"/>
<path d="M131.421 33.7196C131.767 34.9728 132.705 35.5987 134.235 35.5974C135.218 35.5974 135.963 35.2643 136.468 34.5982L138.544 35.7973C137.558 37.2246 136.11 37.9376 134.199 37.9363C132.55 37.9363 131.226 37.437 130.23 36.4384C129.233 35.4398 128.734 34.18 128.733 32.659C128.714 31.965 128.836 31.2744 129.089 30.6285C129.343 29.9825 129.724 29.3945 130.21 28.8994C131.194 27.8943 132.457 27.391 134 27.3897C134.677 27.3701 135.35 27.4956 135.974 27.7576C136.599 28.0197 137.161 28.4124 137.622 28.9093C138.573 29.9249 139.086 31.2763 139.047 32.6689C139.045 33.0246 139.012 33.3795 138.949 33.7295L131.421 33.7196ZM131.381 31.7191H136.46C136.361 31.116 136.036 30.5735 135.552 30.2014C135.098 29.8685 134.548 29.6928 133.986 29.7008C133.371 29.6771 132.766 29.8642 132.272 30.2311C131.809 30.6062 131.493 31.1333 131.381 31.7191Z" fill="#008BD0"/>
<path d="M140.837 37.657V23.064H143.404V37.657H140.837Z" fill="#008BD0"/>
<path d="M145.766 37.657V23.064H148.333V37.657H145.766Z" fill="#008BD0"/>
<path d="M156.238 27.3815C156.741 27.3666 157.24 27.4567 157.706 27.6462C158.171 27.8356 158.592 28.1201 158.942 28.4816C159.653 29.2138 160.009 30.2262 160.01 31.519V37.653H157.443V31.8356C157.443 31.1687 157.263 30.6602 156.906 30.306C156.713 30.1265 156.487 29.9873 156.24 29.8965C155.993 29.8058 155.731 29.7654 155.468 29.7777C155.174 29.7639 154.88 29.8118 154.605 29.9185C154.33 30.0251 154.081 30.1881 153.872 30.397C153.478 30.8099 153.28 31.4293 153.28 32.2551V37.653H150.713V27.6624H153.28V28.7804C153.898 27.8491 154.884 27.3828 156.238 27.3815Z" fill="#008BD0"/>
<path d="M164.379 33.7196C164.725 34.9728 165.662 35.5987 167.191 35.5974C168.177 35.5974 168.922 35.2643 169.426 34.5982L171.5 35.7973C170.516 37.2246 169.068 37.9376 167.155 37.9363C165.507 37.9363 164.184 37.437 163.186 36.4384C162.188 35.4398 161.689 34.18 161.689 32.659C161.67 31.965 161.791 31.2744 162.045 30.6285C162.299 29.9825 162.68 29.3945 163.166 28.8994C164.149 27.8943 165.413 27.391 166.956 27.3897C167.633 27.3701 168.306 27.4956 168.93 27.7576C169.555 28.0197 170.117 28.4124 170.578 28.9093C171.529 29.9249 172.042 31.2763 172.003 32.6689C172.001 33.0247 171.968 33.3797 171.903 33.7295L164.379 33.7196ZM164.339 31.7191H169.426C169.327 31.116 169.002 30.5735 168.518 30.2014C168.064 29.8689 167.514 29.6932 166.952 29.7008C166.336 29.6774 165.731 29.8644 165.236 30.2311C164.77 30.6052 164.453 31.1324 164.339 31.7191Z" fill="#008BD0"/>
<path d="M175.769 30.4998C175.769 30.767 175.947 30.9827 176.299 31.1508C176.713 31.3384 177.144 31.4855 177.586 31.5901C178.1 31.7202 178.606 31.8801 179.101 32.069C179.611 32.2668 180.057 32.6024 180.388 33.0385C180.753 33.5283 180.939 34.1279 180.918 34.7383C180.918 35.7646 180.535 36.556 179.77 37.1127C179.005 37.6694 178.051 37.9458 176.907 37.9418C174.86 37.9418 173.463 37.1503 172.718 35.5673L174.952 34.3089C175.244 35.1756 175.896 35.6082 176.907 35.6069C177.825 35.6069 178.289 35.322 178.289 34.7482C178.289 34.481 178.113 34.2653 177.762 34.0991C177.347 33.9101 176.916 33.7591 176.474 33.648C175.959 33.5123 175.453 33.3458 174.958 33.1494C174.454 32.9507 174.01 32.6232 173.672 32.1996C173.309 31.7366 173.121 31.1596 173.143 30.5711C173.124 30.1241 173.213 29.6791 173.402 29.2738C173.591 28.8685 173.875 28.5146 174.229 28.2421C175.007 27.6575 175.961 27.3573 176.933 27.3913C177.706 27.382 178.469 27.5714 179.148 27.9414C179.811 28.3056 180.359 28.8493 180.728 29.5105L178.524 30.6997C178.396 30.3856 178.173 30.119 177.888 29.9365C177.602 29.7541 177.267 29.6647 176.929 29.6807C176.637 29.6696 176.349 29.7461 176.101 29.9003C175.998 29.9623 175.913 30.0504 175.855 30.1556C175.797 30.2608 175.767 30.3795 175.769 30.4998Z" fill="#008BD0"/>
<path d="M184.429 30.4999C184.429 30.767 184.605 30.9827 184.956 31.1509C185.37 31.3382 185.802 31.4853 186.244 31.5902C186.758 31.7199 187.265 31.8798 187.76 32.069C188.271 32.2661 188.716 32.6018 189.046 33.0386C189.411 33.5279 189.598 34.1278 189.575 34.7383C189.575 35.7646 189.193 36.5561 188.428 37.1128C187.663 37.6695 186.709 37.9458 185.566 37.9419C183.517 37.9419 182.12 37.1504 181.376 35.5674L183.611 34.3089C183.904 35.1756 184.555 35.6083 185.566 35.607C186.483 35.607 186.949 35.322 186.949 34.7482C186.949 34.4811 186.771 34.2654 186.42 34.0992C186.005 33.9102 185.574 33.7592 185.132 33.648C184.617 33.5126 184.112 33.3461 183.617 33.1494C183.113 32.9508 182.669 32.6234 182.33 32.1996C181.966 31.7367 181.779 31.1596 181.8 30.5711C181.782 30.124 181.872 29.679 182.061 29.2737C182.25 28.8683 182.534 28.5146 182.889 28.2422C183.666 27.6573 184.62 27.357 185.592 27.3913C186.364 27.3793 187.126 27.5653 187.806 27.9315C188.47 28.2946 189.018 28.8386 189.386 29.5006L187.192 30.6997C187.063 30.3858 186.841 30.1194 186.555 29.937C186.269 29.7545 185.934 29.665 185.596 29.6807C185.304 29.6696 185.015 29.7461 184.767 29.9003C184.663 29.9615 184.576 30.0492 184.517 30.1545C184.458 30.2598 184.427 30.379 184.429 30.4999Z" fill="#008BD0"/>
<path d="M213.601 37.9359L212.764 35.419H207.199L206.369 37.9359H203.407L208.275 23.9424H211.687L216.595 37.9339L213.601 37.9359ZM208.072 32.8387H211.899L209.983 27.1222L208.072 32.8387Z" fill="#008BD0"/>
<path d="M217.952 23.9424H220.704V37.9339H217.952V23.9424Z" fill="#008BD0"/>
<path d="M197.684 32.6748H195.405C194.661 32.6748 194.058 33.279 194.058 34.0243V36.3077C194.058 37.053 194.661 37.6572 195.405 37.6572H197.684C198.428 37.6572 199.031 37.053 199.031 36.3077V34.0243C199.031 33.279 198.428 32.6748 197.684 32.6748Z" fill="#008BD0"/>
<path d="M25.2343 0.888594C26.2391 0.30618 27.3794 -0.000488281 28.5402 -0.000488281C29.701 -0.000488281 30.8413 0.30618 31.846 0.888594L52.483 12.8262C53.4884 13.4076 54.3232 14.244 54.9036 15.2514C55.4839 16.2587 55.7892 17.4014 55.7888 18.5645V42.4378C55.7892 43.6009 55.4839 44.7436 54.9036 45.7509C54.3232 46.7582 53.4884 47.5947 52.483 48.1761L31.846 60.1137C30.8409 60.6951 29.7008 61.0012 28.5402 61.0012C27.3796 61.0012 26.2394 60.6951 25.2343 60.1137L4.5974 48.1761C3.59264 47.5941 2.75839 46.7575 2.17846 45.7503C1.59853 44.743 1.29333 43.6006 1.29352 42.4378V18.5625C1.29313 17.3996 1.59824 16.2572 2.1782 15.2499C2.75815 14.2426 3.5925 13.406 4.5974 12.8242L25.2343 0.888594Z" fill="#008BD0"/>
<path fill-rule="evenodd" clip-rule="evenodd" d="M18.9346 30.0371C18.9346 29.5123 19.1427 29.009 19.513 28.6379C19.8834 28.2668 20.3857 28.0583 20.9094 28.0583H23.7848C24.3078 28.0557 24.8085 27.8464 25.1783 27.4759C25.5481 27.1054 25.757 26.6036 25.7596 26.0796V23.1808C25.7596 22.656 25.9677 22.1527 26.338 21.7816C26.7084 21.4105 27.2107 21.2021 27.7344 21.2021H30.6098C30.87 21.2008 31.1278 21.251 31.3686 21.3498C31.6093 21.4487 31.8282 21.5942 32.0126 21.7781C32.197 21.962 32.3434 22.1806 32.4432 22.4213C32.5431 22.662 32.5945 22.9201 32.5945 23.1808V26.0618C32.5919 26.5875 32.3816 27.0908 32.0097 27.4616C31.6378 27.8324 31.1345 28.0405 30.6098 28.0405H27.7601C27.2364 28.0405 26.7341 28.249 26.3637 28.6201C25.9934 28.9912 25.7853 29.4945 25.7853 30.0193V38.6049C25.785 38.8051 25.8242 39.0033 25.9005 39.1883C25.9768 39.3733 26.0888 39.5413 26.2301 39.6829C26.3713 39.8244 26.5391 39.9366 26.7237 40.0131C26.9083 40.0896 27.1061 40.1288 27.3059 40.1285H31.1845C31.5672 40.128 31.9341 39.9754 32.2047 39.7043C32.4753 39.4332 32.6275 39.0656 32.6281 38.6821V32.5817C32.6281 32.0569 32.8361 31.5536 33.2065 31.1825C33.5768 30.8114 34.0791 30.603 34.6029 30.603H37.4782C38.002 30.603 38.5043 30.8114 38.8746 31.1825C39.245 31.5536 39.4531 32.0569 39.4531 32.5817V38.5416C39.4536 39.0178 39.6427 39.4743 39.979 39.8108C40.3152 40.1473 40.771 40.3363 41.2462 40.3363H44.5027C44.7381 40.3368 44.9714 40.2908 45.189 40.2008C45.4067 40.1108 45.6045 39.9787 45.7711 39.8119C45.9377 39.6452 46.0698 39.4472 46.1598 39.2292C46.2499 39.0112 46.2961 38.7775 46.2958 38.5416V35.3202C46.2958 35.0596 46.3472 34.8014 46.4471 34.5607C46.547 34.32 46.6933 34.1014 46.8777 33.9176C47.0622 33.7337 47.281 33.5882 47.5218 33.4893C47.7625 33.3904 48.0204 33.3402 48.2805 33.3415H51.1559C51.6796 33.3415 52.1819 33.55 52.5523 33.9211C52.9226 34.2922 53.1307 34.7955 53.1307 35.3202V38.2013C53.1307 38.7261 52.9226 39.2293 52.5523 39.6004C52.1819 39.9715 51.6796 40.18 51.1559 40.18H47.8243C47.421 40.181 47.0346 40.3422 46.7496 40.6281C46.4646 40.914 46.3042 41.3015 46.3037 41.7056V45.198C46.3037 45.7228 46.0957 46.2261 45.7253 46.5972C45.355 46.9683 44.8527 47.1767 44.3289 47.1767H41.4457C41.1855 47.178 40.9276 47.1278 40.6869 47.029C40.4462 46.9301 40.2273 46.7846 40.0429 46.6007C39.8584 46.4168 39.7121 46.1983 39.6122 45.9575C39.5124 45.7168 39.461 45.4587 39.461 45.198V41.5888C39.461 41.2566 39.3293 40.9381 39.0948 40.7032C38.8604 40.4683 38.5424 40.3363 38.2109 40.3363H33.8663C33.5351 40.3368 33.2176 40.469 32.9836 40.7039C32.7496 40.9387 32.6182 41.257 32.6182 41.5888V45.014C32.6156 45.5397 32.4053 46.043 32.0334 46.4138C31.6615 46.7846 31.1582 46.9927 30.6335 46.9927H27.7601C27.2364 46.9927 26.7341 46.7842 26.3637 46.4132C25.9934 46.0421 25.7853 45.5388 25.7853 45.014V41.67C25.7853 41.4697 25.7459 41.2714 25.6694 41.0864C25.5928 40.9015 25.4806 40.7334 25.3392 40.5919C25.1978 40.4504 25.0299 40.3382 24.8452 40.2618C24.6605 40.1853 24.4626 40.1461 24.2627 40.1463H20.9252C20.4015 40.1463 19.8992 39.9379 19.5288 39.5668C19.1585 39.1957 18.9504 38.6924 18.9504 38.1676V30.0549L18.9346 30.0371ZM5.24909 14.3379H10.1091C10.6329 14.3379 11.1352 14.5464 11.5055 14.9174C11.8759 15.2885 12.084 15.7918 12.084 16.3166V19.6705C12.084 20.0746 12.2442 20.4622 12.5293 20.7479C12.8145 21.0336 13.2013 21.1942 13.6046 21.1942H16.9519C17.4757 21.1942 17.978 21.4026 18.3483 21.7737C18.7187 22.1448 18.9267 22.6481 18.9267 23.1729V26.0539C18.9267 26.5787 18.7187 27.082 18.3483 27.4531C17.978 27.8241 17.4757 28.0326 16.9519 28.0326H13.6125C13.2092 28.0326 12.8224 28.1931 12.5372 28.4789C12.2521 28.7646 12.0919 29.1521 12.0919 29.5562V32.9003C12.0919 33.4251 11.8838 33.9284 11.5134 34.2994C11.1431 34.6705 10.6408 34.879 10.117 34.879H1.97483C1.45107 34.879 0.948765 34.6705 0.578413 34.2994C0.208061 33.9284 0 33.4251 0 32.9003L0 30.0371C0 29.5123 0.208061 29.009 0.578413 28.6379C0.948765 28.2668 1.45107 28.0583 1.97483 28.0583H10.5712C10.9747 28.0578 11.3615 27.8969 11.6466 27.6108C11.9317 27.3248 12.0919 26.937 12.0919 26.5327V22.7178C12.0921 22.5176 12.053 22.3194 11.9766 22.1344C11.9003 21.9494 11.7883 21.7814 11.6471 21.6398C11.5058 21.4983 11.3381 21.3861 11.1535 21.3096C10.9689 21.2331 10.771 21.1939 10.5712 21.1942H1.97483C1.45107 21.1942 0.948765 20.9857 0.578413 20.6146C0.208061 20.2435 0 19.7402 0 19.2154L0 16.3245C0 15.7997 0.208061 15.2964 0.578413 14.9254C0.948765 14.5543 1.45107 14.3458 1.97483 14.3458L5.24909 14.3379Z" fill="white"/>
</g>
<defs>
<clipPath id="clip0_24_326">
<rect width="222" height="61" fill="white"/>
</clipPath>
</defs>
</svg>
